# xmcd
#
# Track frame offsets: 
#        150
#        15556
#        31299
#        43471
#        59152
#        74359
#        86283
#        103268
#        119663
#        133895
#        146752
#        161028
#        175295
#        188402
#        204905
#        216983
#
# Disc length: 3033 seconds
#
# Revision: 0
# Processed by: cddbd v1.5.2PL0 Copyright (c) Steve Scherf et al.
# Submitted via: ExactAudioCopy v0.99pb3
#
DISCID=f70bd710
DTITLE=Hives, The - The Black and White Album
DYEAR=2007
DGENRE=Punk
TTITLE0=Tick Tick Boom
TTITLE1=Try It Again
TTITLE2=You Got It All... Wrong
TTITLE3=Well All Right!
TTITLE4=Hey Little World
TTITLE5=A Stroll Through Hive Manor Corridors
TTITLE6=Won't Be Long
TTITLE7=T.H.E.H.I.V.E.S.
TTITLE8=Return the Favour
TTITLE9=Giddy Up!
TTITLE10=Square One Here I Come
TTITLE11=You Dress Up for Armageddon
TTITLE12=Puppet on a String
TTITLE13=Bigger Hole to Fill
TTITLE14=Fall Is Just Something Growups Invented
TTITLE15=Hell No
EXTD=
EXTT0=
EXTT1=
EXTT2=
EXTT3=
EXTT4=
EXTT5=
EXTT6=
EXTT7=
EXTT8=
EXTT9=
EXTT10=
EXTT11=
EXTT12=
EXTT13=
EXTT14=
EXTT15=
PLAYORDER=
